<?xml version="1.0" encoding="UTF-8"?>
<!DOCTYPE svg PUBLIC "-//W3C//DTD SVG 1.1//EN" "http://www.w3.org/Graphics/SVG/1.1/DTD/svg11.dtd">
<!-- Creator: CorelDRAW X7 -->
<svg xmlns="http://www.w3.org/2000/svg" xml:space="preserve" width="584px" height="361px" version="1.1" shape-rendering="geometricPrecision" text-rendering="geometricPrecision" image-rendering="optimizeQuality" fill-rule="evenodd" clip-rule="evenodd"
viewBox="0 0 16851 10414"
 xmlns:xlink="http://www.w3.org/1999/xlink">
 <g id="Layer_x0020_1">
  <metadata id="CorelCorpID_0Corel-Layer"/>
  <path fill="none" stroke="black" stroke-width="57.7033" stroke-linecap="round" stroke-linejoin="round" d="M4130 10207l-668 -1215 -513 -561 -300 -97c-268,-37 -533,-100 -803,-111 -339,-15 -686,-39 -1018,34 -174,37 -407,113 -450,285 -40,159 155,296 276,407 75,68 184,106 285,106 266,0 535,-35 791,-106l730 -206c109,33 154,114 126,249 -20,67 -10,137 15,208 111,207 202,426 334,620 23,34 82,19 116,43 36,26 49,78 87,102 32,21 80,23 126,9 31,-9 53,-70 85,-62 35,9 57,58 90,69 76,28 143,-19 134,-89 -16,-122 -27,-206 -43,-329 200,215 425,729 600,644z"/>
  <path fill="none" stroke="black" stroke-width="57.7033" stroke-linecap="round" stroke-linejoin="round" d="M1101 9062c903,132 1712,723 2358,1313"/>
  <path fill="none" stroke="black" stroke-width="57.7033" stroke-linecap="round" stroke-linejoin="round" d="M3462 8992l402 107 213 101 203 -9 145 121 179 14"/>
  <path fill="none" stroke="black" stroke-width="57.7033" stroke-linecap="round" stroke-linejoin="round" d="M4218 6408c151,1661 -336,1779 833,2082 266,58 311,261 221,496 150,112 426,131 559,-12 -71,-184 -97,-425 74,-527 527,-222 598,-298 605,-689"/>
  <path fill="none" stroke="black" stroke-width="57.7033" stroke-linecap="round" stroke-linejoin="round" d="M5272 8773c-481,-4 -1027,236 -1652,173 640,-680 -142,-1714 -213,-2572 639,-812 3239,-1397 3197,-646l-505 625c-926,320 -1650,210 -2273,-114"/>
  <path fill="none" stroke="black" stroke-width="57.7033" stroke-linecap="round" stroke-linejoin="round" d="M6604 5728c2049,174 -477,2433 1054,3000 -673,278 -1206,-4 -1872,11"/>
  <path fill="none" stroke="black" stroke-width="57.7033" stroke-linecap="round" stroke-linejoin="round" d="M6099 6353l411 773c417,-297 583,371 153,437"/>
  <path fill="none" stroke="black" stroke-width="57.7033" stroke-linecap="round" stroke-linejoin="round" d="M5008 7952c398,187 810,101 987,-405 166,467 -319,752 -694,496"/>
  <path fill="none" stroke="black" stroke-width="57.7033" stroke-linecap="round" stroke-linejoin="round" d="M5147 7260c-12,120 -53,183 -212,271 36,101 182,218 355,142"/>
  <path fill="none" stroke="black" stroke-width="57.7033" stroke-linecap="round" stroke-linejoin="round" d="M4727 7021c58,19 85,95 60,168 -24,74 -91,117 -149,98 -58,-20 -85,-95 -60,-169 25,-73 92,-117 149,-97z"/>
  <path fill="none" stroke="black" stroke-width="57.7033" stroke-linecap="round" stroke-linejoin="round" d="M4637 7070l106 -6 -134 47 154 5 -170 37 175 4 -172 42 154 13 -132 27 86 22"/>
  <path fill="none" stroke="black" stroke-width="57.7033" stroke-linecap="round" stroke-linejoin="round" d="M4570 6972c42,-7 158,-3 187,61"/>
  <path fill="none" stroke="black" stroke-width="57.7033" stroke-linecap="round" stroke-linejoin="round" d="M5686 7021c58,19 85,95 60,168 -25,74 -92,117 -150,98 -58,-20 -85,-95 -60,-169 25,-73 92,-117 150,-97z"/>
  <path fill="none" stroke="black" stroke-width="57.7033" stroke-linecap="round" stroke-linejoin="round" d="M5615 7088l85 -5 -108 38 124 4 -136 29 139 4 -137 33 123 11 -105 22 69 17"/>
  <path fill="none" stroke="black" stroke-width="57.7033" stroke-linecap="round" stroke-linejoin="round" d="M5529 6972c41,-7 157,-3 186,61"/>
  <path fill="none" stroke="black" stroke-width="57.7033" stroke-linecap="round" stroke-linejoin="round" d="M5494 6834c76,-295 452,-295 562,-6"/>
  <path fill="none" stroke="black" stroke-width="57.7033" stroke-linecap="round" stroke-linejoin="round" d="M4367 6826c108,-260 448,-252 562,-6"/>
  <path fill="none" stroke="black" stroke-width="57.7033" stroke-linecap="round" stroke-linejoin="round" d="M6527 7433c77,0 139,73 139,163 0,89 -62,162 -139,162 -77,0 -140,-73 -140,-162 0,-90 63,-163 140,-163z"/>
  <path fill="none" stroke="black" stroke-width="57.7033" stroke-linecap="round" stroke-linejoin="round" d="M6508 7284c270,-207 382,18 205,157"/>
  <path fill="none" stroke="black" stroke-width="57.7033" stroke-linecap="round" stroke-linejoin="round" d="M6474 5849c-56,-160 -187,-252 -444,-244"/>
  <path fill="none" stroke="black" stroke-width="57.7033" stroke-linecap="round" stroke-linejoin="round" d="M6288 6115c-780,169 -1347,145 -1824,40"/>
  <path fill="none" stroke="black" stroke-width="57.7033" stroke-linecap="round" stroke-linejoin="round" d="M6364 5988c-146,-234 -446,-62 -623,-108"/>
  <path fill="none" stroke="black" stroke-width="57.7033" stroke-linecap="round" stroke-linejoin="round" d="M6785 5933c-71,-42 -168,-62 -296,-58"/>
  <path fill="none" stroke="black" stroke-width="57.7033" stroke-linecap="round" stroke-linejoin="round" d="M6737 6165c-60,-105 -157,-182 -347,-175"/>
  <path fill="none" stroke="black" stroke-width="57.7033" stroke-linecap="round" stroke-linejoin="round" d="M6649 6642c-57,-249 -122,-511 -379,-502"/>
  <path fill="none" stroke="black" stroke-width="57.7033" stroke-linecap="round" stroke-linejoin="round" d="M4604 9326l668 -340"/>
  <path fill="none" stroke="black" stroke-width="57.7033" stroke-linecap="round" stroke-linejoin="round" d="M5831 8974l778 373 352 -29 130 103 1681 197"/>
  <path fill="none" stroke="black" stroke-width="57.7033" stroke-linecap="round" stroke-linejoin="round" d="M5060 9086c-127,142 -179,316 -171,514l659 -498 396 563c96,-197 135,-393 117,-589"/>
  <path fill="none" stroke="black" stroke-width="57.7033" stroke-linecap="round" stroke-linejoin="round" d="M3349 9912l-21 -153"/>
  <path fill="white" stroke="black" stroke-width="57.7033" stroke-linecap="round" stroke-linejoin="round" d="M8772 9597c120,-37 227,-44 348,-80 84,-24 174,-33 262,-29 156,9 311,36 464,68 72,15 153,24 208,73 65,56 142,140 166,222 21,75 46,156 35,233 -10,70 -20,147 -63,203 -28,37 -85,40 -131,48 -63,12 -200,-1 -263,10 -42,7 -83,18 -124,30l-1066 0c-147,-21 -293,-40 -441,-45l-1116 -124c-75,86 -327,141 -613,169l-616 0 -254 0c-108,-15 -174,-38 -168,-66 -105,-41 -313,28 -314,-123 142,4 572,-31 951,-108 312,-63 582,-213 913,-221 773,-20 1530,-169 1822,-260z"/>
  <path fill="none" stroke="black" stroke-width="57.7033" stroke-linecap="round" stroke-linejoin="round" d="M5772 10212l-372 70"/>
  <path fill="none" stroke="black" stroke-width="57.7033" stroke-linecap="round" stroke-linejoin="round" d="M173 3722l0 -3693m-144 144l16793 0m-144 -144l0 3692m144 -143l-13157 0m-549 0l-3087 0"/>
  <path fill="none" stroke="black" stroke-width="57.7033" stroke-linecap="round" stroke-linejoin="round" d="M2943 3491l808 1858 0 -1915"/>
  <path fill="none" stroke="black" stroke-width="57.7033" stroke-linecap="round" stroke-linejoin="round" d="M10235 10385c70,-77 165,-138 210,-233 43,-93 50,-203 43,-306 -8,-108 7,-285 -61,-370 -94,-117 -257,-146 -397,-200 -129,-50 -274,-44 -412,-45 -139,-1 -280,7 -416,38 -117,27 -247,113 -335,194 -50,46 -218,108 -116,142"/>
  <path fill="none" stroke="black" stroke-width="57.7033" stroke-linecap="round" stroke-linejoin="round" d="M9166 9506c30,-87 254,-141 374,-135"/>
  <path fill="none" stroke="black" stroke-width="57.7033" stroke-linecap="round" stroke-linejoin="round" d="M1600 8220c83,-69 -122,-138 -184,-162 -113,-44 -225,-79 -344,-62 -138,20 -178,2 -308,54 -128,51 -170,60 -272,154 -110,101 -252,188 -297,331 -32,104 47,263 79,367 30,98 77,198 151,269 76,72 352,77 429,57 249,-8 318,-77 351,-172"/>
 </g>
</svg>
