<?xml version="1.0" encoding="UTF-8"?>
<!DOCTYPE svg PUBLIC "-//W3C//DTD SVG 1.1//EN" "http://www.w3.org/Graphics/SVG/1.1/DTD/svg11.dtd">
<!-- Creator: CorelDRAW X7 -->
<svg xmlns="http://www.w3.org/2000/svg" xml:space="preserve" width="120px" height="120px" version="1.1" shape-rendering="geometricPrecision" text-rendering="geometricPrecision" image-rendering="optimizeQuality" fill-rule="evenodd" clip-rule="evenodd"
viewBox="0 0 4014 4014"
 xmlns:xlink="http://www.w3.org/1999/xlink">
 <defs>
    <linearGradient id="id0" gradientUnits="userSpaceOnUse" x1="602.07" y1="602.082" x2="3411.8" y2="3411.8">
     <stop offset="0" stop-opacity="1" stop-color="#7FAAFF"/>
     <stop offset="1" stop-opacity="1" stop-color="#3D7EFF"/>
    </linearGradient>
 </defs>
 <g id="Layer_x0020_1">
  <metadata id="CorelCorpID_0Corel-Layer"/>
  <g id="_634198514272">
   <circle fill="url(#id0)" cx="2007" cy="2007" r="2007"/>
   <path fill="#256DFF" d="M4013 2069c-32,1053 -875,1901 -1925,1943l-1061 -1061c12,11 29,19 49,19l385 0 128 -59 0 126 1338 0 0 0c221,-1 401,-180 401,-401l0 0 0 -1c0,-126 -59,-238 -150,-312l-1 0 0 0c-69,-55 -155,-88 -250,-88l0 0 0 -1251 1086 1085zm-2989 879l0 -1 0 0 0 1zm490 -440l75 0 0 38 -75 -38z"/>
   <path fill="white" d="M912 984l2015 0 0 1251 0 0c95,0 181,33 250,88l0 0 1 0c91,74 150,186 150,312l0 1 0 0c0,221 -180,400 -401,401l0 0 -1338 0 0 -529 -677 0 0 -1524z"/>
   <path fill="none" stroke="black" stroke-width="66.8896" d="M2923 919l0 1639m67 -67l-2141 0m67 67l0 -1639m-67 67l2141 0"/>
   <polygon fill="white" stroke="black" stroke-width="66.8896" points="1618,2257 1518,2257 1518,2023 1150,2023 1150,2257 1050,2257 1050,1923 1618,1923 "/>
   <polygon fill="white" stroke="black" stroke-width="66.8896" points="1518,1555 1183,1555 1250,1287 1451,1287 "/>
   <line fill="none" stroke="black" stroke-width="66.8896" x1="1351" y1="1555" x2="1351" y2= "1923" />
   <path fill="none" stroke="black" stroke-width="66.8896" d="M1637 1824c-4,0 -8,1 -13,1 -66,0 -120,-39 -120,-87 0,-47 54,-86 120,-86 67,0 121,39 121,86"/>
   <path fill="none" stroke="black" stroke-width="66.8896" d="M1742 1721c24,74 40,169 41,254"/>
   <line fill="none" stroke="black" stroke-width="66.8896" x1="1618" y1="1803" x2="1618" y2= "2157" />
   <line fill="none" stroke="black" stroke-width="66.8896" x1="1624" y1="2157" x2="2023" y2= "2157" />
   <path fill="none" stroke="black" stroke-width="66.8896" d="M1783 1929c80,-21 160,-31 240,-31"/>
   <path fill="none" stroke="black" stroke-width="66.8896" d="M2408 1824c4,0 9,1 13,1 66,0 120,-39 120,-87 0,-47 -54,-86 -120,-86 -67,0 -120,39 -120,86"/>
   <path fill="none" stroke="black" stroke-width="66.8896" d="M2303 1721c-24,74 -39,169 -41,254"/>
   <line fill="none" stroke="black" stroke-width="66.8896" x1="2421" y1="1784" x2="2421" y2= "2137" />
   <line fill="none" stroke="black" stroke-width="66.8896" x1="2421" y1="2157" x2="2023" y2= "2157" />
   <path fill="none" stroke="black" stroke-width="66.8896" d="M2262 1929c-79,-21 -159,-31 -239,-31"/>
   <rect fill="none" stroke="black" stroke-width="66.8896" x="2286" y="2150" width="135" height="108"/>
   <rect fill="none" stroke="black" stroke-width="66.8896" x="1617" y="2150" width="135" height="108"/>
   <path fill="none" stroke="black" stroke-width="66.8896" d="M1624 1652c266,-251 531,-237 797,0"/>
   <path fill="white" stroke="black" stroke-width="64.2095" stroke-linecap="round" stroke-linejoin="round" d="M1589 2911l-128 59 -385 0c-43,0 -69,-35 -69,-62 0,-28 13,-43 33,-52 -30,-3 -54,-28 -54,-58 0,-28 19,-51 45,-57l-11 -2c-35,-5 -57,-33 -57,-61 0,-29 15,-46 37,-54 -32,0 -58,-26 -58,-58 0,-33 26,-58 59,-58l274 3 -36 -99c-28,-77 10,-193 39,-231 28,-43 74,-30 78,17l15 153 137 154 81 41 0 365z"/>
   <line fill="none" stroke="black" stroke-width="66.8896" x1="1518" y1="3027" x2="2923" y2= "3027" />
   <line fill="none" stroke="black" stroke-width="66.8896" x1="1886" y1="3093" x2="1886" y2= "2424" />
   <circle fill="white" stroke="black" stroke-width="66.8896" cx="1744" cy="2893" r="42"/>
   <line fill="none" stroke="black" stroke-width="66.8896" x1="1585" y1="3093" x2="1585" y2= "2424" />
   <path fill="none" stroke="black" stroke-width="66.8896" d="M2306 1099c-33,177 137,504 378,556l-169 599c108,-62 183,52 272,0l0 -1137 -1741 0 0 802"/>
   <path fill="none" stroke="black" stroke-width="66.8896" d="M2927 3037c222,0 401,-180 401,-401 0,-221 -179,-401 -401,-401"/>
   <path fill="white" stroke="black" stroke-width="66.8896" d="M911 1505l1 -127c-6,-66 -26,-119 -44,-141 -26,-41 -69,-28 -73,15l-14 144 -95 471 0 53c0,149 83,271 228,283l-2 -390 33 -93c26,-73 -9,-182 -34,-215z"/>
   <path fill="none" stroke="black" stroke-width="66.8896" d="M911 1503c-27,-41 -70,-29 -74,15l-14 144 -67 145"/>
  </g>
 </g>
</svg>
