<?xml version="1.0" encoding="UTF-8"?>
<!DOCTYPE svg PUBLIC "-//W3C//DTD SVG 1.1//EN" "http://www.w3.org/Graphics/SVG/1.1/DTD/svg11.dtd">
<!-- Creator: CorelDRAW X7 -->
<svg xmlns="http://www.w3.org/2000/svg" xml:space="preserve" width="84px" height="84px" version="1.1" shape-rendering="geometricPrecision" text-rendering="geometricPrecision" image-rendering="optimizeQuality" fill-rule="evenodd" clip-rule="evenodd"
viewBox="0 0 3297 3297"
 xmlns:xlink="http://www.w3.org/1999/xlink">
 <defs>
    <linearGradient id="id0" gradientUnits="userSpaceOnUse" x1="494.572" y1="494.572" x2="2802.63" y2="2802.63">
     <stop offset="0" stop-opacity="1" stop-color="#7FAAFF"/>
     <stop offset="1" stop-opacity="1" stop-color="#3D7EFF"/>
    </linearGradient>
 </defs>
 <g id="Layer_x0020_1">
  <metadata id="CorelCorpID_0Corel-Layer"/>
  <g id="_634213225392">
   <circle fill="url(#id0)" cx="1649" cy="1649" r="1649"/>
   <path fill="#256DFF" d="M3287 1467c7,60 10,120 10,182 0,910 -738,1648 -1648,1648 -35,0 -69,-1 -103,-3l-772 -772 309 -290 -571 -570 552 -852 601 601 254 -598 327 327 368 -346 673 673z"/>
   <path fill="white" stroke="black" stroke-width="75.3497" stroke-linecap="round" stroke-linejoin="round" d="M620 1069l525 0c52,0 94,42 94,93l0 490 -713 0 0 -490c0,-51 42,-93 94,-93z"/>
   <polygon fill="none" stroke="black" stroke-width="75.3497" stroke-linecap="round" stroke-linejoin="round" points="882,1163 788,1447 883,1569 978,1447 "/>
   <path fill="none" stroke="black" stroke-width="75.3497" stroke-linecap="round" stroke-linejoin="round" d="M1305 1652l-826 0m47 38l0 -528c0,-51 42,-93 94,-93l525 0c52,0 94,42 94,93l0 518"/>
   <path fill="white" stroke="black" stroke-width="75.3497" stroke-linecap="round" stroke-linejoin="round" d="M2180 1069l526 0c51,0 93,42 93,93l0 490 -712 0 0 -490c0,-51 42,-93 93,-93z"/>
   <polygon fill="none" stroke="black" stroke-width="75.3497" stroke-linecap="round" stroke-linejoin="round" points="2443,1163 2348,1447 2443,1569 2538,1447 "/>
   <path fill="none" stroke="black" stroke-width="75.3497" stroke-linecap="round" stroke-linejoin="round" d="M2865 1652l-825 0m47 38l0 -528c0,-51 42,-93 93,-93l526 0c51,0 93,42 93,93l0 518"/>
   <circle fill="white" stroke="black" stroke-width="75.3497" stroke-linecap="round" stroke-linejoin="round" cx="2443" cy="920" r="229"/>
   <circle fill="white" stroke="black" stroke-width="75.3497" stroke-linecap="round" stroke-linejoin="round" cx="882" cy="920" r="229"/>
   <line fill="none" stroke="black" stroke-width="75.3497" stroke-linecap="round" stroke-linejoin="round" x1="1341" y1="1780" x2="1985" y2= "1780" />
   <path fill="white" stroke="black" stroke-width="75.3497" stroke-linecap="round" stroke-linejoin="round" d="M1280 1215l765 0c75,0 136,61 136,136l0 712 -1036 0 0 -712c0,-75 61,-136 135,-136z"/>
   <circle fill="white" stroke="black" stroke-width="75.3497" stroke-linecap="round" stroke-linejoin="round" cx="1663" cy="998" r="334"/>
   <polygon fill="none" stroke="black" stroke-width="75.3497" stroke-linecap="round" stroke-linejoin="round" points="1663,1352 1525,1764 1663,1942 1801,1764 "/>
   <path fill="white" stroke="black" stroke-width="75.3497" stroke-linecap="round" stroke-linejoin="round" d="M1918 1929l526 0c51,0 93,42 93,93l0 490 -712 0 0 -490c0,-51 42,-93 93,-93z"/>
   <polygon fill="none" stroke="black" stroke-width="75.3497" stroke-linecap="round" stroke-linejoin="round" points="2181,2023 2086,2307 2181,2429 2276,2307 "/>
   <path fill="none" stroke="black" stroke-width="75.3497" stroke-linecap="round" stroke-linejoin="round" d="M2603 2512l-826 0m48 38l0 -528c0,-51 42,-93 93,-93l526 0c51,0 93,42 93,93l0 518"/>
   <circle fill="white" stroke="black" stroke-width="75.3497" stroke-linecap="round" stroke-linejoin="round" cx="2181" cy="1780" r="229"/>
   <path fill="white" stroke="black" stroke-width="75.3497" stroke-linecap="round" stroke-linejoin="round" d="M882 1929l526 0c51,0 93,42 93,93l0 490 -713 0 0 -490c0,-51 42,-93 94,-93z"/>
   <polygon fill="none" stroke="black" stroke-width="75.3497" stroke-linecap="round" stroke-linejoin="round" points="1145,2023 1050,2307 1145,2429 1240,2307 "/>
   <path fill="none" stroke="black" stroke-width="75.3497" stroke-linecap="round" stroke-linejoin="round" d="M1548 2512l-797 0m37 47l0 -537c0,-51 42,-93 94,-93l526 0c51,0 93,42 93,93l0 518"/>
   <circle fill="white" stroke="black" stroke-width="75.3497" stroke-linecap="round" stroke-linejoin="round" cx="1145" cy="1780" r="229"/>
  </g>
 </g>
</svg>
