<?xml version="1.0" encoding="UTF-8"?>
<!DOCTYPE svg PUBLIC "-//W3C//DTD SVG 1.1//EN" "http://www.w3.org/Graphics/SVG/1.1/DTD/svg11.dtd">
<!-- Creator: CorelDRAW X7 -->
<svg xmlns="http://www.w3.org/2000/svg" xml:space="preserve" width="84px" height="84px" version="1.1" shape-rendering="geometricPrecision" text-rendering="geometricPrecision" image-rendering="optimizeQuality" fill-rule="evenodd" clip-rule="evenodd"
viewBox="0 0 1458 1458"
 xmlns:xlink="http://www.w3.org/1999/xlink">
 <defs>
    <linearGradient id="id0" gradientUnits="userSpaceOnUse" x1="218.675" y1="218.675" x2="1239.18" y2="1239.18">
     <stop offset="0" stop-opacity="1" stop-color="#7FAAFF"/>
     <stop offset="1" stop-opacity="1" stop-color="#3D7EFF"/>
    </linearGradient>
 </defs>
 <g id="Layer_x0020_1">
  <metadata id="CorelCorpID_0Corel-Layer"/>
  <g id="_634198496736">
   <circle fill="url(#id0)" cx="729" cy="729" r="729"/>
   <path fill="#256DFF" d="M1453 645c3,27 5,55 5,84 0,403 -326,729 -729,729 -30,0 -59,-2 -88,-5l-337 -337 186 -155 -323 -323 109 -37 -134 -134 484 15 397 -134 149 149 133 0 148 148z"/>
   <path fill="white" stroke="black" stroke-width="33.3158" stroke-linecap="round" stroke-linejoin="round" d="M463 761l615 -264c-28,-305 -306,-155 -352,-205 -4,45 103,54 78,105 -82,98 -180,-195 -340,-114 -18,9 -15,30 -62,25 27,45 113,21 107,67 -14,67 -122,-62 -214,-16 -49,25 -109,103 -181,67 40,103 180,52 213,110 -97,31 -141,66 -160,102 130,-29 140,171 296,123z"/>
   <line fill="none" stroke="black" stroke-width="33.3158" stroke-linecap="round" stroke-linejoin="round" x1="292" y1="1158" x2="485" y2= "475" />
   <line fill="none" stroke="black" stroke-width="33.3158" stroke-linecap="round" stroke-linejoin="round" x1="287" y1="1116" x2="1155" y2= "1116" />
   <polygon fill="white" stroke="black" stroke-width="33.3158" stroke-linecap="round" stroke-linejoin="round" points="479,497 1305,497 1130,1116 304,1116 "/>
   <g>
    <path fill="none" stroke="black" stroke-width="33.3158" stroke-linecap="round" stroke-linejoin="round" d="M574 784c-3,0 -6,0 -8,0 -42,0 -75,-24 -75,-54 0,-29 33,-53 75,-53 41,0 74,24 74,53"/>
    <path fill="none" stroke="black" stroke-width="33.3158" stroke-linecap="round" stroke-linejoin="round" d="M639 720c20,61 30,145 24,206"/>
    <line fill="none" stroke="black" stroke-width="33.3158" stroke-linecap="round" stroke-linejoin="round" x1="566" y1="781" x2="566" y2= "978" />
    <line fill="none" stroke="black" stroke-width="33.3158" stroke-linecap="round" stroke-linejoin="round" x1="566" y1="978" x2="813" y2= "978" />
    <line fill="none" stroke="black" stroke-width="33.3158" stroke-linecap="round" stroke-linejoin="round" x1="664" y1="907" x2="813" y2= "907" />
    <path fill="none" stroke="black" stroke-width="33.3158" stroke-linecap="round" stroke-linejoin="round" d="M664 849c50,-13 99,-20 149,-19"/>
    <path fill="none" stroke="black" stroke-width="33.3158" stroke-linecap="round" stroke-linejoin="round" d="M542 680c28,-87 229,-57 208,157"/>
    <path fill="none" stroke="black" stroke-width="33.3158" stroke-linecap="round" stroke-linejoin="round" d="M619 632c65,-33 130,-49 194,-47"/>
    <path fill="none" stroke="black" stroke-width="33.3158" stroke-linecap="round" stroke-linejoin="round" d="M1053 784c2,0 5,0 8,0 41,0 74,-24 74,-54 0,-29 -33,-53 -74,-53 -42,0 -75,24 -75,53"/>
    <path fill="none" stroke="black" stroke-width="33.3158" stroke-linecap="round" stroke-linejoin="round" d="M987 720c-20,61 -30,145 -23,206"/>
    <line fill="none" stroke="black" stroke-width="33.3158" stroke-linecap="round" stroke-linejoin="round" x1="1061" y1="781" x2="1061" y2= "978" />
    <line fill="none" stroke="black" stroke-width="33.3158" stroke-linecap="round" stroke-linejoin="round" x1="1061" y1="978" x2="813" y2= "978" />
    <line fill="none" stroke="black" stroke-width="33.3158" stroke-linecap="round" stroke-linejoin="round" x1="962" y1="907" x2="813" y2= "907" />
    <path fill="none" stroke="black" stroke-width="33.3158" stroke-linecap="round" stroke-linejoin="round" d="M962 849c-49,-13 -99,-20 -149,-19"/>
    <path fill="none" stroke="black" stroke-width="33.3158" stroke-linecap="round" stroke-linejoin="round" d="M1084 680c-28,-87 -229,-57 -208,157"/>
    <path fill="none" stroke="black" stroke-width="33.3158" stroke-linecap="round" stroke-linejoin="round" d="M1007 632c-65,-33 -129,-49 -194,-47"/>
    <rect fill="none" stroke="black" stroke-width="33.3158" stroke-linecap="round" stroke-linejoin="round" x="1011" y="978" width="49.9683" height="49.9683"/>
    <rect fill="none" stroke="black" stroke-width="33.3158" stroke-linecap="round" stroke-linejoin="round" x="566" y="978" width="49.9683" height="49.9683"/>
   </g>
   <circle fill="white" stroke="black" stroke-width="33.3158" stroke-linecap="round" stroke-linejoin="round" cx="512" cy="890" r="307"/>
   <line fill="none" stroke="black" stroke-width="33.3158" stroke-linecap="round" stroke-linejoin="round" x1="512" y1="890" x2="741" y2= "890" />
   <g>
    <path fill="black" fill-rule="nonzero" d="M512 1097c9,0 16,8 16,17 0,9 -7,17 -16,17l0 -34zm-241 -207l33 0 0 0 0 10 1 11 1 10 2 10 3 10 2 10 4 10 3 9 5 10 4 9 5 8 6 9 5 8 6 8 7 7 7 7 7 7 8 7 7 6 9 6 8 5 9 5 9 5 9 4 9 4 10 3 10 3 10 2 10 2 11 1 10 1 11 0 0 34 -13 -1 -12 -1 -12 -1 -12 -2 -11 -3 -12 -3 -11 -4 -11 -4 -11 -5 -10 -5 -10 -6 -10 -7 -9 -6 -10 -7 -8 -8 -9 -8 -8 -8 -7 -9 -7 -9 -7 -10 -6 -9 -6 -11 -6 -10 -4 -11 -5 -11 -3 -11 -4 -11 -2 -12 -3 -12 -1 -12 -1 -12 0 -12 0 0zm241 -242l0 34 0 0 -11 0 -10 1 -11 1 -10 2 -10 2 -10 3 -10 3 -9 4 -9 4 -9 5 -9 5 -8 5 -9 6 -7 6 -8 7 -7 7 -7 7 -7 7 -6 8 -5 8 -6 9 -5 9 -4 8 -5 10 -3 9 -4 10 -2 10 -3 10 -2 10 -1 10 -1 11 0 11 -33 0 0 -13 1 -12 1 -12 3 -12 2 -12 4 -11 3 -11 5 -11 4 -11 6 -10 6 -10 6 -10 7 -10 7 -9 7 -9 8 -8 9 -8 8 -7 10 -8 9 -6 10 -7 10 -5 10 -6 11 -5 11 -4 11 -4 12 -3 11 -3 12 -2 12 -1 12 -1 13 -1 0 0zm226 158l-31 11 -3 -7 -3 -7 -4 -7 -4 -7 -3 -7 -5 -7 -4 -6 -5 -6 -5 -6 -5 -6 -5 -6 -5 -5 -6 -6 -6 -5 -6 -5 -6 -4 -7 -5 -6 -4 -7 -4 -7 -3 -7 -4 -7 -3 -8 -3 -7 -2 -8 -2 -8 -2 -7 -2 -8 -2 -8 -1 -9 -1 -8 0 -8 0 0 -34 9 1 10 0 9 1 10 1 9 2 9 2 9 2 9 3 9 3 8 3 9 4 8 4 8 4 8 5 7 5 8 5 7 5 7 6 7 5 7 7 6 6 6 7 6 6 6 7 5 8 5 7 5 8 5 8 4 8 4 8 3 8 4 9zm14 85l-71 -66 81 -30 -10 96zm-14 -85c3,8 -1,18 -10,21 -9,3 -18,-1 -21,-10l31 -11z"/>
   </g>
   <circle fill="white" stroke="black" stroke-width="33.3158" stroke-linecap="round" stroke-linejoin="round" cx="512" cy="890" r="41"/>
   <line fill="none" stroke="black" stroke-width="33.3158" stroke-linecap="round" stroke-linejoin="round" x1="454" y1="497" x2="1322" y2= "497" />
   <line fill="none" stroke="black" stroke-width="33.3158" stroke-linecap="round" stroke-linejoin="round" x1="1125" y1="1136" x2="1312" y2= "475" />
  </g>
 </g>
</svg>
