<?xml version="1.0" encoding="UTF-8"?>
<!DOCTYPE svg PUBLIC "-//W3C//DTD SVG 1.1//EN" "http://www.w3.org/Graphics/SVG/1.1/DTD/svg11.dtd">
<!-- Creator: CorelDRAW X7 -->
<svg xmlns="http://www.w3.org/2000/svg" xml:space="preserve" width="84px" height="84px" version="1.1" shape-rendering="geometricPrecision" text-rendering="geometricPrecision" image-rendering="optimizeQuality" fill-rule="evenodd" clip-rule="evenodd"
viewBox="0 0 946 946"
 xmlns:xlink="http://www.w3.org/1999/xlink">
 <defs>
    <linearGradient id="id0" gradientUnits="userSpaceOnUse" x1="141.842" y1="141.842" x2="803.787" y2="803.787">
     <stop offset="0" stop-opacity="1" stop-color="#7FAAFF"/>
     <stop offset="1" stop-opacity="1" stop-color="#3D7EFF"/>
    </linearGradient>
 </defs>
 <g id="Layer_x0020_1">
  <metadata id="CorelCorpID_0Corel-Layer"/>
  <g id="_634198501984">
   <circle fill="url(#id0)" cx="473" cy="473" r="473"/>
   <path fill="#256DFF" d="M935 373c7,32 11,65 11,100 0,261 -212,473 -473,473 -24,0 -48,-2 -71,-6l-238 -237 616 -486 155 156z"/>
   <rect fill="white" x="159" y="214" width="619" height="495"/>
   <path fill="none" stroke="black" stroke-width="21.6101" stroke-linecap="round" stroke-linejoin="round" d="M147 214l642 0m-11 -11l0 517m11 -11l-642 0m12 11l0 -517"/>
   <path fill="white" stroke="black" stroke-width="21.6101" stroke-linecap="round" stroke-linejoin="round" d="M780 562l0 85c29,-23 44,-51 39,-99 -11,-15 -10,-69 7,-110 -36,-39 -25,-92 -24,-147 -44,4 -54,56 -31,162 -16,-47 -33,-93 -56,-77 45,52 -33,137 65,186z"/>
   <path fill="white" stroke="black" stroke-width="21.6101" stroke-linecap="round" stroke-linejoin="round" d="M164 562l0 85c-29,-23 -44,-51 -39,-99 11,-15 10,-69 -7,-110 36,-39 25,-92 24,-147 44,4 53,56 31,162 16,-47 33,-93 56,-77 -45,51 33,137 -65,186z"/>
   <path fill="none" stroke="black" stroke-width="21.6101" stroke-linecap="round" stroke-linejoin="round" d="M260 439l0 169 405 0 0 -169m-184 -4l-120 -109 -128 109m4 4l462 0m-248 0l0 169m243 -170l-96 -100 -237 0m34 135l-68 0m0 0l0 135m68 0l0 -135m124 90l90 0 0 -90 -90 0 0 90zm-225 -180l0 -45m0 0l-34 1 0 74m304 60l0 90m-45 -45l90 -1"/>
  </g>
 </g>
</svg>
