<?xml version="1.0" encoding="UTF-8"?>
<!DOCTYPE svg PUBLIC "-//W3C//DTD SVG 1.1//EN" "http://www.w3.org/Graphics/SVG/1.1/DTD/svg11.dtd">
<!-- Creator: CorelDRAW X7 -->
<svg xmlns="http://www.w3.org/2000/svg" xml:space="preserve" width="70px" height="70px" version="1.1" shape-rendering="geometricPrecision" text-rendering="geometricPrecision" image-rendering="optimizeQuality" fill-rule="evenodd" clip-rule="evenodd"
viewBox="0 0 1992 1992"
 xmlns:xlink="http://www.w3.org/1999/xlink">
 <defs>
    <linearGradient id="id0" gradientUnits="userSpaceOnUse" x1="298.778" y1="298.778" x2="1693.09" y2="1693.09">
     <stop offset="0" stop-opacity="1" stop-color="#7FAAFF"/>
     <stop offset="1" stop-opacity="1" stop-color="#3D7EFF"/>
    </linearGradient>
 </defs>
 <g id="Layer_x0020_1">
  <metadata id="CorelCorpID_0Corel-Layer"/>
  <g id="_576039414576">
   <circle fill="url(#id0)" cx="996" cy="996" r="996"/>
   <path fill="#256DFF" d="M1950 1282c-110,367 -426,646 -814,700 -49,6 -92,9 -126,10 -5,0 -9,0 -14,0 -71,0 -141,-8 -208,-22l-462 -463 329 -263 -182 -183 950 -306 527 527z"/>
   <path fill="white" stroke="black" stroke-width="56.9035" d="M424 1548c-77,0 -139,-62 -139,-139 0,-76 62,-139 139,-139l1144 0c77,0 139,63 139,139 0,77 -62,139 -139,139l-1144 0z"/>
   <circle fill="white" stroke="black" stroke-width="56.9035" cx="424" cy="1409" r="43"/>
   <circle fill="white" stroke="black" stroke-width="56.9035" cx="708" cy="1409" r="43"/>
   <circle fill="white" stroke="black" stroke-width="56.9035" cx="1562" cy="1409" r="43"/>
   <circle fill="white" stroke="black" stroke-width="56.9035" cx="993" cy="1409" r="43"/>
   <circle fill="white" stroke="black" stroke-width="56.9035" cx="1277" cy="1409" r="43"/>
   <path fill="white" stroke="black" stroke-width="56.9035" d="M864 1060l357 96 120 -447c-90,-143 -195,-227 -314,-257 -119,-34 -260,-15 -408,64l-120 446 365 98z"/>
   <path fill="white" stroke="black" stroke-width="56.9035" d="M856 1058l365 98 79 -295c60,16 117,-5 128,-47 12,-42 -28,-89 -87,-105 -60,-16 -95,5 -122,33 -39,59 -64,99 -86,173 -66,-38 -143,-68 -215,-87 -72,-19 -146,-30 -223,-30 19,-75 17,-122 13,-193 -10,-38 -30,-73 -89,-89 -60,-16 -117,5 -129,47 -11,42 28,88 88,104l-79 295 357 96z"/>
   <rect fill="white" stroke="black" stroke-width="56.9035" transform="matrix(1.42797 0.382624 -0.281645 1.05111 498.464 964.3)" width="92.1254" height="92.1254"/>
   <rect fill="white" stroke="black" stroke-width="56.9035" transform="matrix(1.41232 0.37843 -0.281645 1.05111 1090.96 1121.1)" width="92.1254" height="92.1254"/>
   <circle fill="white" stroke="black" stroke-width="56.9035" cx="1053" cy="436" r="85"/>
   <line fill="none" stroke="black" stroke-width="56.9035" x1="1053" y1="350" x2="1053" y2= "86" />
  </g>
 </g>
</svg>
