<?xml version="1.0" encoding="UTF-8"?>
<!DOCTYPE svg PUBLIC "-//W3C//DTD SVG 1.1//EN" "http://www.w3.org/Graphics/SVG/1.1/DTD/svg11.dtd">
<!-- Creator: CorelDRAW X7 -->
<svg xmlns="http://www.w3.org/2000/svg" xml:space="preserve" width="120px" height="120px" version="1.1" shape-rendering="geometricPrecision" text-rendering="geometricPrecision" image-rendering="optimizeQuality" fill-rule="evenodd" clip-rule="evenodd"
viewBox="0 0 5969 5969"
 xmlns:xlink="http://www.w3.org/1999/xlink">
 <defs>
    <linearGradient id="id0" gradientUnits="userSpaceOnUse" x1="895.353" y1="895.353" x2="5073.66" y2="5073.66">
     <stop offset="0" stop-opacity="1" stop-color="#7FAAFF"/>
     <stop offset="1" stop-opacity="1" stop-color="#3D7EFF"/>
    </linearGradient>
 </defs>
 <g id="Layer_x0020_1">
  <metadata id="CorelCorpID_0Corel-Layer"/>
  <g id="_634198551872">
   <circle fill="url(#id0)" cx="2985" cy="2985" r="2985"/>
   <path fill="#256DFF" d="M5921 3518c-242,1345 -1387,2377 -2785,2447l-1621 -1620 297 -297 3018 -1622 1091 1092z"/>
   <path fill="white" d="M1515 4048l2933 0 0 -1150c0,-61 122,-19 181,-36 37,-11 76,-23 106,-48 55,-47 115,-96 142,-163 22,-52 12,-115 -5,-169 -14,-45 -47,-84 -84,-112 -59,-44 -140,-52 -198,-97 -52,-40 -75,-109 -126,-151 -48,-39 -106,-63 -164,-86 -54,-21 -114,-26 -170,-45 -49,-18 -96,-43 -144,-65 -39,-18 -78,-39 -119,-54 -96,-34 -193,-68 -292,-92 -93,-24 -187,-41 -282,-52 -102,-11 -206,-15 -308,-14 -111,0 -222,3 -332,17 -104,13 -207,35 -309,61 -83,22 -165,50 -246,81 -89,35 -173,86 -263,119 -106,38 -229,32 -325,91 -67,41 -77,140 -136,192 -47,41 -123,37 -172,76 -51,41 -93,95 -119,155 -17,38 -14,85 -5,126 10,41 33,78 60,111 24,31 56,55 90,75 40,24 84,43 130,55 51,15 157,-28 157,25l0 1150z"/>
   <path fill="none" stroke="black" stroke-width="99.4711" stroke-linecap="round" stroke-linejoin="round" d="M1562 2892c-15,1 -31,2 -47,2 -245,0 -443,-142 -443,-318 0,-175 198,-318 443,-318 246,0 444,143 444,318"/>
   <path fill="none" stroke="black" stroke-width="99.4711" stroke-linecap="round" stroke-linejoin="round" d="M1950 2513c119,363 178,861 142,1225"/>
   <line fill="none" stroke="black" stroke-width="99.4711" stroke-linecap="round" stroke-linejoin="round" x1="1511" y1="2859" x2="1511" y2= "4053" />
   <line fill="none" stroke="black" stroke-width="99.4711" stroke-linecap="round" stroke-linejoin="round" x1="1511" y1="4053" x2="3003" y2= "4053" />
   <line fill="none" stroke="black" stroke-width="99.4711" stroke-linecap="round" stroke-linejoin="round" x1="2100" y1="3625" x2="2985" y2= "3625" />
   <path fill="none" stroke="black" stroke-width="99.4711" stroke-linecap="round" stroke-linejoin="round" d="M2100 3281c295,-79 590,-116 885,-116"/>
   <path fill="none" stroke="black" stroke-width="99.4711" stroke-linecap="round" stroke-linejoin="round" d="M1374 2275c168,-516 1363,-334 1235,932"/>
   <path fill="none" stroke="black" stroke-width="99.4711" stroke-linecap="round" stroke-linejoin="round" d="M1835 1992c383,-197 766,-288 1150,-278"/>
   <polygon fill="white" stroke="black" stroke-width="99.4711" stroke-linecap="round" stroke-linejoin="round" points="4448,4048 4152,4048 4147,4351 4446,4351 "/>
   <polygon fill="white" stroke="black" stroke-width="99.4711" stroke-linecap="round" stroke-linejoin="round" points="1809,4053 1511,4053 1511,4351 1809,4351 "/>
   <path fill="none" stroke="black" stroke-width="99.4711" stroke-linecap="round" stroke-linejoin="round" d="M2989 2652c328,-4 897,29 1017,238 148,53 295,57 442,0 245,0 443,-142 443,-317 0,-175 -198,-317 -443,-317 -244,0 -442,142 -442,317l0 1467"/>
   <line fill="none" stroke="black" stroke-width="99.4711" stroke-linecap="round" stroke-linejoin="round" x1="4446" y1="2884" x2="4446" y2= "4053" />
   <line fill="none" stroke="black" stroke-width="99.4711" stroke-linecap="round" stroke-linejoin="round" x1="4446" y1="4053" x2="3003" y2= "4053" />
   <path fill="none" stroke="black" stroke-width="99.4711" stroke-linecap="round" stroke-linejoin="round" d="M4448 3618c-147,56 -295,54 -443,0l-1021 0"/>
   <path fill="none" stroke="black" stroke-width="99.4711" stroke-linecap="round" stroke-linejoin="round" d="M2984 3160c294,-1 755,-1 1022,115 147,35 295,39 442,0"/>
   <path fill="none" stroke="black" stroke-width="99.4711" stroke-linecap="round" stroke-linejoin="round" d="M4590 2273c-170,-346 -821,-377 -821,27l-1 912"/>
   <path fill="none" stroke="black" stroke-width="99.4711" stroke-linecap="round" stroke-linejoin="round" d="M4130 1991c-382,-196 -764,-286 -1146,-277"/>
   <path fill="none" stroke="black" stroke-width="99.4711" stroke-linecap="round" stroke-linejoin="round" d="M3768 3180c43,128 63,292 0,438l0 422"/>
   <path fill="none" stroke="black" stroke-width="99.4711" stroke-linecap="round" stroke-linejoin="round" d="M3501 3180c54,128 53,292 0,438l0 422"/>
   <path fill="none" stroke="black" stroke-width="99.4711" stroke-linecap="round" stroke-linejoin="round" d="M4043 2460c-257,-242 -598,-264 -1054,-259"/>
   <path fill="none" stroke="black" stroke-width="99.4711" stroke-linecap="round" stroke-linejoin="round" d="M3993 1925c-301,-113 -499,78 -499,375l-1 873"/>
   <path fill="none" stroke="black" stroke-width="99.4711" stroke-linecap="round" stroke-linejoin="round" d="M3709 1815c-352,-79 -499,117 -499,375l-1 983"/>
   <path fill="none" stroke="black" stroke-width="99.4711" stroke-linecap="round" stroke-linejoin="round" d="M3209 3180c54,128 52,292 0,438l0 422"/>
   <line fill="none" stroke="black" stroke-width="99.4711" x1="3003" y1="671" x2="3003" y2= "1715" />
   <polyline fill="none" stroke="black" stroke-width="99.4711" stroke-linecap="round" stroke-linejoin="round" points="3152,1012 3003,671 2854,1019 "/>
   <line fill="none" stroke="black" stroke-width="99.4711" stroke-linecap="round" stroke-linejoin="round" x1="3779" y1="4421" x2="3003" y2= "5197" />
   <polyline fill="none" stroke="black" stroke-width="99.4711" stroke-linecap="round" stroke-linejoin="round" points="3689,4720 3799,4401 3480,4511 "/>
   <line fill="none" stroke="black" stroke-width="99.4711" stroke-linecap="round" stroke-linejoin="round" x1="2228" y1="4421" x2="3003" y2= "5197" />
   <polyline fill="none" stroke="black" stroke-width="99.4711" stroke-linecap="round" stroke-linejoin="round" points="2317,4720 2207,4401 2526,4511 "/>
   <line fill="none" stroke="black" stroke-width="99.4711" stroke-linecap="round" stroke-linejoin="round" x1="3003" y1="5177" x2="3003" y2= "4053" />
   <line fill="none" stroke="black" stroke-width="99.4711" stroke-linecap="round" stroke-linejoin="round" x1="3003" y1="1715" x2="3003" y2= "4043" />
  </g>
 </g>
</svg>
