<?xml version="1.0" encoding="UTF-8"?>
<!DOCTYPE svg PUBLIC "-//W3C//DTD SVG 1.1//EN" "http://www.w3.org/Graphics/SVG/1.1/DTD/svg11.dtd">
<!-- Creator: CorelDRAW X7 -->
<svg xmlns="http://www.w3.org/2000/svg" xml:space="preserve" width="120px" height="120px" version="1.1" shape-rendering="geometricPrecision" text-rendering="geometricPrecision" image-rendering="optimizeQuality" fill-rule="evenodd" clip-rule="evenodd"
viewBox="0 0 2186 2186"
 xmlns:xlink="http://www.w3.org/1999/xlink">
 <defs>
    <linearGradient id="id0" gradientUnits="userSpaceOnUse" x1="327.89" y1="327.89" x2="1858.05" y2="1858.05">
     <stop offset="0" stop-opacity="1" stop-color="#7FAAFF"/>
     <stop offset="1" stop-opacity="1" stop-color="#3D7EFF"/>
    </linearGradient>
 </defs>
 <g id="Layer_x0020_1">
  <metadata id="CorelCorpID_0Corel-Layer"/>
  <g id="_634198512192">
   <circle fill="url(#id0)" cx="1093" cy="1093" r="1093"/>
   <path fill="#256DFF" d="M2178 965c5,42 8,85 8,128 0,604 -489,1093 -1093,1093 -59,0 -117,-5 -174,-14l-554 -554 554 0 0 -315 323 0 0 91 -119 0 0 73 365 0 0 -73 -119 0 0 -91 437 0 0 -710 372 372z"/>
   <rect fill="white" x="804" y="593" width="1002" height="710"/>
   <polygon fill="white" stroke="black" stroke-width="36.4277" points="1173,1211 1118,1211 1118,1084 972,1084 972,1211 918,1211 918,1029 1173,1029 "/>
   <polygon fill="white" stroke="black" stroke-width="36.4277" points="1136,847 954,847 991,719 1100,719 "/>
   <line fill="none" stroke="black" stroke-width="36.4277" x1="1046" y1="840" x2="1046" y2= "1037" />
   <path fill="none" stroke="black" stroke-width="36.4277" d="M1810 555l0 784m37 -37l-1039 0m0 0l0 -747m-36 37l1075 0"/>
   <polygon fill="white" stroke="black" stroke-width="36.4277" points="1373,1393 1373,1302 1227,1302 1227,1393 1100,1393 1100,1466 1501,1466 1501,1393 "/>
   <path fill="none" stroke="black" stroke-width="36.4277" d="M1253 990c-2,0 -4,0 -7,0 -33,0 -59,-19 -59,-43 0,-24 26,-43 59,-43 33,0 60,19 60,43"/>
   <path fill="none" stroke="black" stroke-width="36.4277" d="M1305 939c12,36 19,84 20,125"/>
   <line fill="none" stroke="black" stroke-width="36.4277" x1="1246" y1="970" x2="1246" y2= "1145" />
   <line fill="none" stroke="black" stroke-width="36.4277" x1="1246" y1="1156" x2="1444" y2= "1156" />
   <path fill="none" stroke="black" stroke-width="36.4277" d="M1325 1042c40,-11 80,-16 119,-16"/>
   <path fill="none" stroke="black" stroke-width="36.4277" d="M1636 990c2,0 4,0 6,0 33,0 60,-19 60,-43 0,-24 -27,-43 -60,-43 -33,0 -59,19 -59,43"/>
   <path fill="none" stroke="black" stroke-width="36.4277" d="M1584 939c-12,36 -20,84 -21,126"/>
   <line fill="none" stroke="black" stroke-width="36.4277" x1="1646" y1="970" x2="1646" y2= "1138" />
   <line fill="none" stroke="black" stroke-width="36.4277" x1="1642" y1="1156" x2="1444" y2= "1156" />
   <path fill="none" stroke="black" stroke-width="36.4277" d="M1564 1042c-40,-11 -80,-16 -120,-16"/>
   <rect fill="none" stroke="black" stroke-width="36.4277" x="1573" y="1156" width="72.8608" height="54.651"/>
   <rect fill="none" stroke="black" stroke-width="36.4277" x="1246" y="1156" width="72.0622" height="54.651"/>
   <path fill="none" stroke="black" stroke-width="36.4277" d="M1246 904c132,-125 264,-118 396,0"/>
   <rect fill="white" x="365" y="927" width="554" height="690"/>
   <line fill="none" stroke="black" stroke-width="36.4277" x1="553" y1="1102" x2="863" y2= "1102" />
   <line fill="none" stroke="black" stroke-width="36.4277" x1="553" y1="1156" x2="863" y2= "1156" />
   <path fill="none" stroke="black" stroke-width="36.4277" d="M772 1612l0 -146 146 0m0 0l-146 146"/>
   <rect fill="none" stroke="black" stroke-width="36.4277" x="444" y="1098" width="54.645" height="58.5418"/>
   <path fill="none" stroke="black" stroke-width="36.4277" d="M335 1612l619 0m-36 36l0 -765m36 37l-619 0m36 -37l0 765"/>
   <polygon fill="white" stroke="black" stroke-width="36.4277" points="772,1029 517,1029 517,920 572,920 572,865 717,865 717,920 772,920 "/>
   <line fill="none" stroke="black" stroke-width="36.4277" x1="553" y1="1229" x2="863" y2= "1229" />
   <line fill="none" stroke="black" stroke-width="36.4277" x1="553" y1="1284" x2="863" y2= "1284" />
   <rect fill="none" stroke="black" stroke-width="36.4277" x="444" y="1225" width="54.645" height="58.5418"/>
   <line fill="none" stroke="black" stroke-width="36.4277" x1="553" y1="1357" x2="863" y2= "1357" />
   <line fill="none" stroke="black" stroke-width="36.4277" x1="553" y1="1411" x2="863" y2= "1411" />
   <rect fill="none" stroke="black" stroke-width="36.4277" x="444" y="1353" width="54.645" height="58.5418"/>
  </g>
 </g>
</svg>
