<?xml version="1.0" encoding="UTF-8"?>
<!DOCTYPE svg PUBLIC "-//W3C//DTD SVG 1.1//EN" "http://www.w3.org/Graphics/SVG/1.1/DTD/svg11.dtd">
<!-- Creator: CorelDRAW X7 -->
<svg xmlns="http://www.w3.org/2000/svg" xml:space="preserve" width="84px" height="84px" version="1.1" shape-rendering="geometricPrecision" text-rendering="geometricPrecision" image-rendering="optimizeQuality" fill-rule="evenodd" clip-rule="evenodd"
viewBox="0 0 1458 1458"
 xmlns:xlink="http://www.w3.org/1999/xlink">
 <defs>
    <linearGradient id="id0" gradientUnits="userSpaceOnUse" x1="218.675" y1="218.675" x2="1239.18" y2="1239.18">
     <stop offset="0" stop-opacity="1" stop-color="#7FAAFF"/>
     <stop offset="1" stop-opacity="1" stop-color="#3D7EFF"/>
    </linearGradient>
 </defs>
 <g id="Layer_x0020_1">
  <metadata id="CorelCorpID_0Corel-Layer"/>
  <g id="_634250767664">
   <circle fill="url(#id0)" cx="729" cy="729" r="729"/>
   <path fill="#256DFF" d="M1451 830c-45,322 -300,577 -623,621l-538 -538 875 -370 286 287z"/>
   <polygon fill="white" points="764,1151 290,913 293,514 691,337 1161,551 1157,928 "/>
   <line fill="none" stroke="black" stroke-width="33.3158" stroke-linecap="round" stroke-linejoin="round" x1="698" y1="431" x2="953" y2= "546" />
   <line fill="none" stroke="black" stroke-width="33.3158" stroke-linecap="round" stroke-linejoin="round" x1="404" y1="561" x2="404" y2= "854" />
   <line fill="none" stroke="black" stroke-width="33.3158" stroke-linecap="round" stroke-linejoin="round" x1="658" y1="700" x2="658" y2= "990" />
   <line fill="none" stroke="black" stroke-width="33.3158" stroke-linecap="round" stroke-linejoin="round" x1="698" y1="594" x2="404" y2= "740" />
   <line fill="none" stroke="black" stroke-width="33.3158" stroke-linecap="round" stroke-linejoin="round" x1="698" y1="423" x2="698" y2= "593" />
   <line fill="none" stroke="black" stroke-width="33.3158" stroke-linecap="round" stroke-linejoin="round" x1="698" y1="594" x2="774" y2= "626" />
   <path fill="none" stroke="black" stroke-width="33.3158" stroke-linecap="round" stroke-linejoin="round" d="M664 323l493 224 -393 206m23 16l-140 -76"/>
   <path fill="none" stroke="black" stroke-width="33.3158" stroke-linecap="round" stroke-linejoin="round" d="M386 962l378 189 404 -230m-11 39l0 -440"/>
   <line fill="none" stroke="black" stroke-width="33.3158" stroke-linecap="round" stroke-linejoin="round" x1="764" y1="753" x2="764" y2= "1169" />
   <line fill="none" stroke="black" stroke-width="33.3158" stroke-linecap="round" stroke-linejoin="round" x1="711" y1="806" x2="711" y2= "1224" />
   <line fill="none" stroke="black" stroke-width="33.3158" stroke-linecap="round" stroke-linejoin="round" x1="720" y1="806" x2="782" y2= "837" />
   <line fill="none" stroke="black" stroke-width="33.3158" stroke-linecap="round" stroke-linejoin="round" x1="720" y1="939" x2="782" y2= "970" />
   <line fill="none" stroke="black" stroke-width="33.3158" stroke-linecap="round" stroke-linejoin="round" x1="698" y1="431" x2="404" y2= "573" />
   <line fill="none" stroke="black" stroke-width="33.3158" stroke-linecap="round" stroke-linejoin="round" x1="953" y1="546" x2="658" y2= "700" />
   <line fill="none" stroke="black" stroke-width="33.3158" stroke-linecap="round" stroke-linejoin="round" x1="1165" y1="543" x2="764" y2= "753" />
   <line fill="none" stroke="black" stroke-width="33.3158" stroke-linecap="round" stroke-linejoin="round" x1="1176" y1="631" x2="782" y2= "837" />
   <line fill="none" stroke="black" stroke-width="33.3158" stroke-linecap="round" stroke-linejoin="round" x1="1176" y1="764" x2="782" y2= "970" />
   <line fill="none" stroke="black" stroke-width="33.3158" stroke-linecap="round" stroke-linejoin="round" x1="415" y1="584" x2="283" y2= "508" />
   <line fill="none" stroke="black" stroke-width="33.3158" stroke-linecap="round" stroke-linejoin="round" x1="711" y1="327" x2="290" y2= "516" />
   <line fill="none" stroke="black" stroke-width="33.3158" stroke-linecap="round" stroke-linejoin="round" x1="290" y1="516" x2="290" y2= "913" />
   <line fill="none" stroke="black" stroke-width="33.3158" stroke-linecap="round" stroke-linejoin="round" x1="771" y1="1155" x2="283" y2= "909" />
   <line fill="none" stroke="black" stroke-width="33.3158" stroke-linecap="round" stroke-linejoin="round" x1="658" y1="974" x2="396" y2= "843" />
   <line fill="none" stroke="black" stroke-width="33.3158" stroke-linecap="round" stroke-linejoin="round" x1="658" y1="868" x2="396" y2= "736" />
   <line fill="none" stroke="black" stroke-width="33.3158" stroke-linecap="round" stroke-linejoin="round" x1="351" y1="621" x2="283" y2= "586" />
   <line fill="none" stroke="black" stroke-width="33.3158" stroke-linecap="round" stroke-linejoin="round" x1="347" y1="619" x2="347" y2= "1044" />
   <line fill="none" stroke="black" stroke-width="33.3158" stroke-linecap="round" stroke-linejoin="round" x1="347" y1="752" x2="283" y2= "716" />
   <line fill="none" stroke="black" stroke-width="33.3158" stroke-linecap="round" stroke-linejoin="round" x1="1115" y1="950" x2="1115" y2= "1050" />
   <g>
    <path fill="black" fill-rule="nonzero" d="M1323 837l-54 80 -42 -75 96 -5zm-82 28c8,-5 18,-2 23,6 4,8 1,18 -7,23l-16 -29zm-92 51l92 -51 16 29 -92 51 -16 -29zm16 29c-8,5 -18,2 -23,-6 -4,-8 -1,-18 7,-23l16 29z"/>
   </g>
   <g>
    <path fill="black" fill-rule="nonzero" d="M128 832l97 0 -39 77 -58 -77zm69 53c-9,-4 -12,-14 -8,-22 4,-9 14,-12 23,-8l-15 30zm86 43l-86 -43 15 -30 86 43 -15 30zm15 -30c8,5 11,15 7,23 -4,8 -14,11 -22,7l15 -30z"/>
   </g>
   <g>
    <path fill="black" fill-rule="nonzero" d="M698 86l44 87 -87 0 43 -87zm-16 86c0,-10 7,-17 16,-17 10,0 17,7 17,17l-33 0zm0 143l0 -143 33 0 0 143 -33 0zm33 0c0,9 -7,17 -17,17 -9,0 -16,-8 -16,-17l33 0z"/>
   </g>
  </g>
 </g>
</svg>
