<?xml version="1.0" encoding="UTF-8"?>
<!DOCTYPE svg PUBLIC "-//W3C//DTD SVG 1.0//EN" "http://www.w3.org/TR/2001/REC-SVG-20010904/DTD/svg10.dtd">
<!-- Creator: CorelDRAW X7 -->
<svg xmlns="http://www.w3.org/2000/svg" xml:space="preserve" width="55.8652mm" height="11.1887mm" version="1.0" style="shape-rendering:geometricPrecision; text-rendering:geometricPrecision; image-rendering:optimizeQuality; fill-rule:evenodd; clip-rule:evenodd"
viewBox="0 0 5583 1118"
 xmlns:xlink="http://www.w3.org/1999/xlink">
 <defs>
  <style type="text/css">
   <![CDATA[
    .str0 {stroke:#FEFEFE;stroke-width:7.61479;stroke-linecap:round;stroke-linejoin:round}
    .fil3 {fill:none}
    .fil2 {fill:#FEFEFE}
    .fil5 {fill:black}
    .fil1 {fill:#256DFF}
    .fil4 {fill:white}
    .fil0 {fill:url(#id0)}
   ]]>
  </style>
  <linearGradient id="id0" gradientUnits="userSpaceOnUse" x1="192.488" y1="145.281" x2="924.878" y2="972.825">
   <stop offset="0" style="stop-opacity:1; stop-color:#7FAAFF"/>
   <stop offset="1" style="stop-opacity:1; stop-color:#3D7EFF"/>
  </linearGradient>
 </defs>
 <g id="Layer_x0020_1">
  <metadata id="CorelCorpID_0Corel-Layer"/>
  <g id="_755672848448">
   <rect class="fil0" x="4" y="4" width="1110" height="1110"/>
   <path class="fil1" d="M415 1114l699 0 0 -697 -132 -131 -106 246 -246 -246 -29 183 -155 -155 -93 63 -217 457 279 280z"/>
   <path class="fil2" d="M245 824c-2,9 -9,15 -18,15l-80 0c-7,0 -14,-6 -14,-13 0,-1 0,-1 0,-2 0,-1 0,-3 0,-4l123 -459c13,-49 57,-83 108,-83 51,0 95,34 108,83l122 459c1,1 1,3 1,4 0,1 0,1 0,2 -1,7 -7,13 -14,13l-80 0c-9,0 -17,-6 -18,-15l-109 -435c0,0 0,-1 0,-1 0,0 0,0 0,0 -1,-5 -5,-9 -10,-9 -5,0 -9,4 -10,9 0,0 0,0 0,0 0,0 -1,1 -1,1l-108 435z"/>
   <rect class="fil3 str0" x="4" y="4" width="1110" height="1110"/>
   <path class="fil2" d="M634 293c-1,-9 -9,-16 -18,-15l-80 0c-7,0 -13,5 -14,12 0,1 0,1 0,2 0,1 0,3 0,4l123 460c13,48 57,83 108,83 51,0 95,-35 108,-83l123 -460c0,-1 0,-3 0,-4 0,-1 0,-1 0,-2 0,-7 -7,-13 -14,-12l-80 0c-9,-1 -16,6 -18,15l-108 434c0,1 -1,1 -1,1 0,0 0,1 0,1 -1,5 -5,8 -10,8 -5,0 -9,-3 -10,-8 0,0 0,-1 0,-1 0,0 0,0 0,-1l-109 -434z"/>
   <rect class="fil4" x="1195" y="4" width="4388" height="1110"/>
   <path class="fil5" d="M1633 688l-142 0 -35 102 -91 0 167 -466 67 0 166 466 -95 0 -37 -102zm-119 -73l99 0 -34 -103 -14 -73 -3 0 -14 74 -34 102zm291 -283c10,-1 21,-3 33,-5 11,-1 23,-2 35,-3 11,-1 23,-2 34,-2 11,-1 21,-1 30,-1 22,0 43,2 64,6 21,4 40,11 56,21 17,9 30,23 40,40 10,16 15,38 15,63 0,38 -9,69 -27,93 -17,24 -41,40 -70,49l32 21 106 176 -105 0 -105 -181 -47 -8 0 189 -91 0 0 -458zm139 70c-9,0 -19,0 -28,0 -9,1 -16,2 -20,3l0 134 38 0c25,0 45,-5 60,-17 15,-11 23,-30 23,-57 0,-20 -7,-35 -19,-46 -12,-12 -30,-17 -54,-17zm550 369c-14,10 -32,18 -53,22 -22,4 -45,7 -68,7 -27,0 -54,-5 -78,-13 -25,-9 -47,-23 -66,-42 -19,-19 -34,-44 -46,-75 -11,-30 -16,-67 -16,-111 0,-45 6,-83 18,-114 13,-31 29,-55 49,-74 20,-19 43,-32 67,-40 25,-8 50,-13 74,-13 27,0 49,2 68,6 18,3 33,7 45,12l-18 77c-10,-5 -22,-8 -36,-11 -14,-2 -31,-3 -51,-3 -36,0 -66,13 -88,39 -22,26 -33,67 -33,121 0,24 2,46 8,66 5,19 13,36 24,50 11,14 24,25 40,32 16,8 35,12 56,12 20,0 37,-2 50,-6 14,-4 26,-9 36,-15l18 73zm316 -174l-169 0 0 193 -90 0 0 -462 90 0 0 188 169 0 0 -188 91 0 0 462 -91 0 0 -193zm180 -269l91 0 0 462 -91 0 0 -462zm331 271l12 79 4 0 13 -79 88 -271 96 0 -172 466 -65 0 -173 -466 105 0 92 271zm256 -271l90 0 0 462 -90 0 0 -462zm157 382l196 -274 34 -28 -230 0 0 -80 320 0 0 80 -197 277 -33 25 230 0 0 80 -320 0 0 -80zm378 -382l274 0 0 80 -184 0 0 108 168 0 0 81 -168 0 0 113 188 0 0 80 -278 0 0 -462zm345 4c10,-1 21,-3 33,-5 11,-1 23,-2 35,-3 11,-1 23,-2 34,-2 11,-1 21,-1 30,-1 22,0 43,2 64,6 21,4 40,11 56,21 17,9 30,23 40,40 10,16 15,38 15,63 0,38 -9,69 -27,93 -17,24 -41,40 -70,49l32 21 106 176 -105 0 -105 -181 -47 -8 0 189 -91 0 0 -458zm139 70c-9,0 -19,0 -28,0 -9,1 -16,2 -20,3l0 134 38 0c25,0 45,-5 60,-17 15,-11 22,-30 22,-57 0,-20 -6,-35 -18,-46 -12,-12 -30,-17 -54,-17z"/>
  </g>
 </g>
</svg>
